PathFileType	3	(X/Y/Z)	D:\minhoCalibration\240510\subject2_KPNP\preferred\preferred02.trc
DataRate	CameraRate	NumFrames	NumMarkers	Units	OrigDataRate	OrigDataStartFrame	OrigNumFrames
200.0	200.0	24	10	mm	200.0	418	197	
Frame#	Time	Left_Ankle_Outer1			Left_Ankle_Inner1			Left_Knee_Outer1			Left_Knee_Inner1			Left_Wrist1			Right_Wrist1			Right_Knee_Inner1			Right_Knee_Outer1			Right_Ankle_Inner1			Right_Ankle_Outer1			
		X1	Y1	Z1	X2	Y2	Z2	X3	Y3	Z3	X4	Y4	Z4	X5	Y5	Z5	X6	Y6	Z6	X7	Y7	Z7	X8	Y8	Z8	X9	Y9	Z9	X10	Y10	Z10	
418	2.08	-447.60391	86.335251	-710.55859	-432.11407	88.562645	-657.04553	-303.85013	505.46014	-790.45862	-302.76843	491.9563	-695.58728	-327.27576	937.20172	-854.51282	-419.71042	1145.9736	-592.60938	-253.36678	903.54364	-211.49699	-306.29456	983.21051	-203.27614	-492.73837	643.32062	13.04067	-538.0434	719.53894	53.304138
419	2.085	-447.59555	86.244621	-710.7381	-432.05191	87.979683	-658.30322	-305.46161	505.40356	-790.20612	-303.30927	492.03351	-695.60925	-326.33237	938.21362	-854.8653	-420.79236	1144.4607	-591.96692	-255.7188	897.09259	-212.10461	-309.37759	976.33765	-202.63062	-499.15619	630.29089	-1.8534964	-546.38849	704.96295	40.324852
420	2.09	-447.5986	86.229774	-710.8465	-432.17679	88.721642	-657.30463	-306.04572	505.90808	-790.19727	-303.98749	492.23953	-695.35968	-325.14639	939.47729	-855.07483	-422.24329	1143.1112	-591.43542	-258.28448	890.43909	-212.90361	-312.71246	969.20093	-202.13011	-506.45959	617.21216	-16.11965	-554.13593	690.52325	26.773783
421	2.095	-447.55801	86.317871	-711.08344	-432.37701	88.569931	-657.84406	-307.38455	505.67001	-789.29669	-304.55283	492.36719	-694.89819	-323.90732	940.5556	-855.2475	-423.83829	1142.1656	-590.95789	-261.08606	883.7196	-213.81641	-316.04684	961.83008	-202.06796	-512.36298	603.73517	-31.592083	-561.8913	675.7796	13.139469
422	2.1	-447.57129	86.452095	-711.28082	-432.75522	89.117477	-657.11194	-307.36792	505.87921	-789.18219	-305.52197	492.59662	-694.35077	-322.2081	942.12311	-855.34229	-426.00223	1141.3992	-590.95392	-264.10858	876.9068	-214.98868	-320.46094	954.29956	-201.37794	-518.96503	590.89893	-46.224194	-569.05817	661.47119	-0.74619693
423	2.105	-447.45258	86.586914	-711.65552	-432.42072	88.347191	-659.18512	-307.47516	505.89102	-788.71442	-306.64005	492.83847	-693.69275	-320.46423	943.44159	-855.26837	-428.16019	1140.483	-590.84314	-267.29135	870.12982	-216.29036	-324.86761	946.57928	-201.29756	-524.70471	577.96191	-61.651012	-575.91901	647.00482	-14.963076
424	2.11	-447.44385	86.779686	-711.90033	-432.82608	89.754837	-657.4303	-307.62045	505.84549	-787.92596	-307.82578	493.09576	-692.99329	-318.47723	944.83875	-855.17505	-430.74203	1139.548	-590.93329	-270.66016	863.32068	-217.70042	-329.61755	938.70642	-201.42049	-530.23315	565.18658	-77.349724	-582.3056	632.26471	-29.845121
425	2.115	-447.39297	86.909477	-712.27527	-432.5665	88.762199	-659.79803	-307.28333	505.98413	-787.39764	-309.17203	493.36325	-692.23199	-316.52374	946.11511	-854.52313	-433.37064	1138.6677	-591.15088	-274.21976	856.50635	-219.10919	-334.64441	930.68359	-201.78241	-535.22565	552.59149	-93.345329	-588.67303	617.87537	-44.282406
426	2.12	-447.33908	87.132027	-712.5929	-432.85046	89.612061	-659.00916	-307.03757	506.09	-786.96619	-310.49811	493.73209	-691.45764	-314.47806	947.39307	-854.02844	-436.19717	1137.3348	-591.23181	-277.94116	849.64832	-220.76157	-339.93799	922.47577	-202.39842	-539.42883	539.98993	-109.96275	-594.04462	603.77484	-59.159687
427	2.125	-447.49472	87.484032	-713.27625	-432.70761	89.245728	-660.51971	-307.15387	506.26712	-786.0108	-311.84473	493.91675	-690.72986	-312.1535	948.79462	-853.53992	-439.17725	1136.0388	-591.54565	-281.89139	842.73798	-222.53647	-345.47394	914.15753	-203.29378	-544.31439	527.63232	-125.83819	-599.44305	588.67773	-75.441437
428	2.13	-447.4856	87.647675	-713.63446	-432.82895	89.428108	-660.84833	-307.36752	506.44214	-785.2121	-313.12625	494.21133	-690.03137	-309.89606	950.20544	-852.48096	-442.05383	1134.6511	-591.86926	-285.84317	835.88165	-224.334	-351.29947	905.6792	-204.42506	-547.95691	515.63373	-142.46538	-604.73773	575.18286	-89.430962
429	2.135	-447.45471	87.802658	-713.97266	-433.25546	90.004013	-660.17828	-306.81873	507.47281	-784.89246	-314.27194	494.50549	-689.3634	-307.95621	951.22101	-851.28882	-444.99432	1133.149	-592.19806	-290.13049	828.9256	-226.4334	-357.31174	897.0863	-205.84024	-551.49402	503.54785	-159.06096	-608.90234	560.76526	-106.05218
430	2.14	-447.49133	87.922951	-714.43109	-433.52191	90.705696	-659.72229	-307.6001	507.73471	-783.86346	-315.39398	494.73679	-688.77539	-305.39667	952.77954	-850.73584	-447.82352	1131.5836	-592.53815	-294.58768	821.96735	-228.56741	-363.45483	888.41431	-207.47649	-553.88306	491.66431	-176.34109	-613.46344	547.03082	-120.76899
431	2.145	-447.263	87.787231	-714.53735	-433.39923	90.375275	-661.00647	-307.89975	508.33707	-783.18011	-316.41608	495.02792	-688.27374	-303.5271	953.81793	-849.31671	-450.66989	1130.0112	-592.82898	-299.1394	814.8606	-230.71889	-369.72681	879.64661	-209.42941	-557.11469	480.01205	-192.60544	-617.21204	532.95599	-137.39809
432	2.15	-447.21405	87.806435	-714.9043	-433.95737	90.727882	-660.59442	-308.20789	508.94595	-782.58569	-317.29153	495.45081	-687.89166	-301.36414	955.07178	-848.28662	-453.35968	1128.2815	-593.06207	-303.90826	807.638	-232.9995	-376.08661	870.66827	-211.70236	-558.4621	468.68054	-210.08296	-620.45819	519.1828	-153.67371
433	2.155	-447.21722	87.882843	-715.28668	-434.27194	90.197441	-662.30389	-307.97177	509.80829	-782.302	-318.17307	495.67859	-687.47766	-299.23059	956.28009	-847.31049	-455.96515	1126.5065	-593.50336	-308.85562	800.12854	-235.4826	-382.41415	861.61371	-214.54845	-560.57544	457.46719	-226.47678	-623.58154	505.78363	-170.76389
434	2.16	-447.2103	87.80127	-715.58661	-434.02216	90.546776	-662.41785	-308.51215	509.81146	-781.62848	-319.08353	495.92087	-687.09613	-297.20322	957.4386	-846.30444	-458.52277	1124.8544	-593.75891	-313.90805	792.41791	-238.10008	-389.01706	852.10083	-217.55603	-561.33752	446.50754	-243.75648	-626.422	492.89917	-186.705
435	2.165	-447.11539	87.60778	-715.73633	-434.1098	90.443222	-662.75916	-308.62781	509.98318	-781.09985	-319.96716	496.11426	-686.72772	-295.28473	958.578	-845.35101	-460.94553	1123.1851	-593.83063	-319.08157	784.39209	-241.08658	-395.65179	842.65625	-220.45483	-560.97235	435.75729	-262.11493	-628.83405	479.6814	-204.13701
436	2.17	-447.32263	87.79995	-716.30164	-434.07553	90.795151	-662.54187	-308.70078	510.03223	-780.51758	-320.94632	496.22433	-686.27698	-293.43781	959.68945	-844.39709	-463.35507	1121.4338	-594.19452	-324.42621	776.10138	-244.35338	-402.03342	833.0329	-223.84612	-562.22278	424.68863	-278.11469	-630.6181	466.94656	-221.59836
437	2.175	-447.32626	87.704704	-716.40796	-434.43698	90.474297	-662.75854	-308.6727	509.8663	-779.96082	-321.93069	496.25082	-685.82037	-291.67157	960.70319	-843.51166	-465.7482	1119.6366	-594.40149	-329.77359	767.6073	-247.8439	-408.14835	822.87842	-228.35976	-562.50854	414.64578	-294.41034	-632.50891	455.41098	-237.07761
438	2.18	-447.42529	87.646004	-716.45941	-434.37219	90.55584	-662.6701	-308.59323	509.71298	-779.33923	-323.00897	496.14716	-685.29395	-290.09424	961.62952	-842.54993	-468.15115	1117.7318	-594.67938	-335.22427	758.90887	-251.82936	-414.35345	813.05237	-232.522	-560.54211	405.25754	-313.10107	-633.63348	443.0137	-254.33687
439	2.185	-447.47217	87.507637	-716.40533	-434.30264	89.727295	-663.87793	-308.56915	509.3866	-778.6731	-324.09161	496.07083	-684.69348	-288.48288	962.56555	-841.56195	-470.58853	1115.7225	-594.94214	-340.76486	749.99927	-256.10065	-420.48874	803.22528	-236.85066	-560.65283	395.05869	-329.21481	-634.52094	429.8219	-274.02621
440	2.19	-447.47256	87.330688	-716.30292	-434.58563	90.238731	-662.51093	-308.60727	509.07053	-777.9162	-325.20438	495.93845	-683.96161	-286.96796	963.42029	-840.58026	-472.96335	1113.6329	-595.23859	-346.38675	740.97333	-260.65897	-426.58456	793.28815	-241.4881	-560.7948	384.78595	-345.36978	-635.45343	418.61911	-290.12723
441	2.195	-447.57159	87.193245	-716.20587	-434.46167	89.363487	-663.67853	-308.59821	508.75574	-777.0647	-326.2103	495.74933	-683.20569	-285.53711	964.22278	-839.61566	-475.26208	1111.5388	-595.65765	-351.95636	731.77893	-265.6199	-432.71063	783.31464	-246.40178	-559.75641	375.6424	-361.6655	-635.87598	406.8544	-308.15036
